<svg xmlns="http://www.w3.org/2000/svg" height="70" viewBox="0 0 90 75">
  <path fill="#ffba93" d="M25.137 10.207c-1.831 0-3.205-.414-4.12-1.242-.916-.872-1.374-2.071-1.374-3.597 0-1.526.589-2.79 1.766-3.794C22.63.528 24.134.004 25.922.004c1.613 0 2.921.393 3.924 1.178 1.003.785 1.504 1.897 1.504 3.335 0 1.744-.567 3.14-1.7 4.186-1.134 1.003-2.638 1.504-4.513 1.504Zm11.772 20.34c.567 0 1.003.283 1.308.85.349.523.523 1.199.523 2.027 0 1.003-.152 1.788-.458 2.355-.305.566-.784 1.068-1.438 1.504-3.052 2.005-7.129 4.774-12.23 8.306-1.7 9.068-3.902 16.197-6.606 21.385-2.703 5.189-6.147 7.783-10.333 7.783-2.267 0-4.076-.698-5.428-2.093C.852 71.313.154 69.525.154 67.301c0-3.095 1.2-6.409 3.597-9.94 2.398-3.488 6.91-7.805 13.538-12.95l.458-3.335c.61-4.186 1.09-8.306 1.439-12.36.261-2.355.675-5.865 1.242-10.53.175-1.264.654-2.18 1.439-2.747.785-.61 1.984-.915 3.597-.915 1.308 0 2.158.196 2.55.588.437.393.655.938.655 1.635 0 2.006-.72 7.543-2.159 16.612l-.654 4.512c3.488-2.616 6.671-4.883 9.549-6.801.567-.349 1.068-.523 1.504-.523ZM8.395 68.413c1.133 0 2.376-1.286 3.727-3.858 1.352-2.573 2.616-6.715 3.794-12.426-3.314 2.834-5.69 5.384-7.129 7.651-1.482 2.311-2.224 4.339-2.224 6.083 0 1.7.61 2.55 1.832 2.55Z"/>
  <path fill="#ff93ba" d="M68.099 24.922c.566 0 1.002.284 1.308.85.305.567.458 1.287.458 2.159 0 2.092-.633 3.335-1.897 3.727-2.616.916-5.494 1.44-8.633 1.57-.828 3.662-2.463 6.605-4.905 8.829-2.441 2.18-5.21 3.27-8.306 3.27-2.616 0-4.861-.632-6.736-1.897-1.831-1.264-3.226-2.943-4.185-5.035-.96-2.093-1.44-4.36-1.44-6.802 0-3.314.633-6.257 1.897-8.829 1.265-2.616 3.009-4.643 5.232-6.082 2.224-1.483 4.687-2.224 7.39-2.224 3.314 0 5.974 1.156 7.98 3.466 2.048 2.268 3.248 5.08 3.596 8.437 2.05-.13 4.491-.567 7.325-1.308.349-.087.654-.13.916-.13ZM46.647 38.395c1.396 0 2.595-.567 3.598-1.7 1.046-1.134 1.744-2.77 2.092-4.906a9.281 9.281 0 0 1-3.139-3.597 10.924 10.924 0 0 1-1.046-4.709c0-.697.065-1.395.196-2.092h-.327c-1.744 0-3.205.85-4.382 2.55-1.134 1.657-1.7 4.011-1.7 7.063 0 2.398.458 4.23 1.373 5.494.96 1.264 2.071 1.897 3.336 1.897Z"/>
  <path fill="#939eff" d="M87.141 14.524c1.003 0 1.7.13 2.093.392.392.262.589.698.589 1.308 0 1.046-.567 4.774-1.7 11.183a2051.78 2051.78 0 0 0-1.767 10.922c-1.613 11.205-3.836 20.078-6.67 26.618-2.834 6.54-6.606 9.81-11.315 9.81-2.223 0-4.032-.698-5.428-2.093-1.395-1.351-2.093-3.139-2.093-5.363 0-2.049.458-4.142 1.374-6.278.96-2.136 2.703-4.6 5.232-7.39 2.572-2.747 6.191-5.908 10.856-9.483l.197-1.504c.305-1.614.653-3.924 1.046-6.933-.872 3.14-2.093 5.537-3.663 7.194-1.57 1.613-3.226 2.42-4.97 2.42-1.962 0-3.575-.894-4.84-2.681-1.22-1.832-1.83-4.099-1.83-6.802 0-3.27.217-6.257.653-8.96.436-2.747 1.156-5.646 2.159-8.698.436-1.308 1.046-2.245 1.83-2.812.785-.567 2.028-.85 3.728-.85.96 0 1.614.152 1.963.457.392.306.588.763.588 1.374 0 .349-.24 1.526-.72 3.531a68.316 68.316 0 0 0-1.046 4.382c-.349 1.788-.654 3.51-.915 5.167-.262 1.613-.393 2.943-.393 3.99 0 1.656.458 2.484 1.374 2.484.654 0 1.46-.654 2.42-1.962 1.002-1.308 2.049-3.291 3.139-5.951 1.133-2.66 2.223-5.93 3.27-9.81.348-1.308.872-2.245 1.57-2.812.74-.567 1.83-.85 3.27-.85Zm-18.05 53.89c1.09 0 2.31-1.265 3.662-3.794 1.352-2.529 2.704-6.736 4.055-12.622-3.357 2.834-5.799 5.406-7.325 7.717-1.482 2.354-2.223 4.404-2.223 6.148 0 .74.13 1.351.392 1.83.305.48.785.72 1.439.72Z"/>
</svg>
